<svg width="1478.99929" height="447.99999999999994" xmlns="http://www.w3.org/2000/svg">

 <g>
  <title>background</title>
  <rect fill="none" id="canvas_background" height="450" width="1480.99929" y="-1" x="-1"/>
 </g>
 <g>
  <title>Layer 1</title>
  <path id="svg_1" d="m1392.667264,87.835795c23.5625,0 42.66796,-19.10547 42.66796,-42.66797c0,-23.56641 -19.10156,-42.66797 -42.66796,-42.66797c-23.5625,0 -42.66797,19.10156 -42.66797,42.66797c0.02734,23.55078 19.11328,42.63672 42.66797,42.66797zm0,-68.26953c14.13671,0 25.60156,11.46093 25.60156,25.60156c0,14.13672 -11.46485,25.59766 -25.60156,25.59766c-14.14063,0 -25.60157,-11.46094 -25.60157,-25.59766c0,-14.14063 11.46094,-25.60156 25.60157,-25.60156zm0,0"/>
  <path stroke="null" id="svg_2" d="m1393.731832,392.368106c0,18.85156 15.28125,34.13281 34.13282,34.13281s34.13281,-15.28125 34.13281,-34.13281c0,-18.85157 -15.28125,-34.13282 -34.13281,-34.13282s-34.13282,15.28125 -34.13282,34.13282zm51.19922,0c0,9.42578 -7.64062,17.0664 -17.0664,17.0664s-17.06641,-7.64062 -17.06641,-17.0664c0,-9.42579 7.64062,-17.06641 17.06641,-17.06641s17.0664,7.64062 17.0664,17.06641zm0,0"/>
  <path id="svg_3" d="m1145.46728,241.572998c-14.13672,0 -25.59766,11.46094 -25.59766,25.59766c0,14.14062 11.46094,25.60156 25.59766,25.60156c14.14062,0 25.60156,-11.46094 25.60156,-25.60156c0,-14.13672 -11.46094,-25.59766 -25.60156,-25.59766zm0,34.13281c-4.71094,0 -8.53125,-3.82031 -8.53125,-8.53515c0,-4.71094 3.82031,-8.53125 8.53125,-8.53125c4.71484,0 8.53515,3.82031 8.53515,8.53125c0,4.71484 -3.82031,8.53515 -8.53515,8.53515zm0,0"/>
  <path id="svg_6" d="m1442.759918,195.695165c18.0625,-27.60156 10.32812,-64.625 -17.27735,-82.6875c-27.60547,-18.0664 -64.6289,-10.33203 -82.6914,17.27344c-0.72266,1.10547 -1.41016,2.23438 -2.0586,3.38672c-26.48437,-33.09766 -74.78125,-38.45703 -107.8789,-11.97266c-33.09766,26.48438 -38.45704,74.78125 -11.97266,107.87891c0.23828,0.29297 0.47656,0.58984 0.71484,0.87891c-26.80468,21.03906 -33.96875,58.63281 -16.78515,88.05859c-4.76953,2.71094 -9.20703,5.97656 -13.20703,9.73437c-32.17969,-7.27343 -64.16407,12.91407 -71.4375,45.08985c-0.34766,1.53125 -0.63282,3.07812 -0.85938,4.63672l-17.67187,0l0,68.26562l136.53515,0c29.10156,0.01563 55.00391,-18.44141 64.4961,-45.95312c6.73046,2.1875 13.76171,3.29687 20.83593,3.28515c32.21485,-0.18359 59.97657,-22.72656 66.76563,-54.21875c47.08984,0.85938 85.95703,-36.61719 86.8164,-83.70703c0.50391,-27.48437 -12.27734,-53.52734 -34.32421,-69.94922zm-50.98828,136.59766c-2.60547,-0.01172 -0.11443,0.05644 -7.80079,-0.35563c-7.68636,-0.41206 -5.18027,-2.21767 -13.23291,16.88008c-8.05264,19.09775 -20.67334,37.54977 -47.23584,37.68649c-7.91797,0.0039 -11.09041,-1.62601 -22.80078,-5.41797c-11.71037,-3.79196 -9.27738,-4.64591 -11.44531,3.82031c-2.16793,8.46622 -0.62109,1.49219 -0.76563,2.28906c-4.41406,24.32032 -25.60156,41.9961 -50.32031,41.97657l-136.53515,0l0,-34.13282l25.60156,0c10.46088,-0.25 8.78125,-0.07035 8.78125,-4.78519c0.00781,-23.5625 18.86328,-46.41012 42.42969,-46.40621c4.44531,0.0039 12.11325,1.19922 16.34372,2.5625c3.17578,1.02343 1.90629,0.85546 4.16019,-1.60548c5.51563,-6.0586 17.89448,-14.46482 25.57026,-17.332c4.42188,-1.63282 4.46193,-2.56988 2.05082,-5.21099c-2.41111,-2.64111 -3.80466,-4.72263 -4.40622,-5.457c-17.91407,-21.875 -12.70315,-54.38672 9.17576,-72.30078c2.35547,-1.92969 -2.3685,1.37289 7.53515,-5.125c9.90365,-6.49789 10.33968,-3.97425 3.62988,-11.44288c-6.7098,-7.46863 0.17868,0.51077 -2.0166,-2.2954c-2.19528,-2.80617 -19.4414,-27.20704 -19.38671,-43.9375c-0.01954,-32.96485 26.6875,-59.70704 59.65625,-59.72657c22.91015,-0.01172 39.3069,17.75422 51.96592,28.03464c12.65902,10.28042 6.87202,11.4174 17.31559,-1.92559c10.44357,-13.34299 29.32395,-30.76139 52.18333,-25.03873c22.85937,5.71875 36.75391,28.88671 31.03516,51.74609c-1.61719,6.46875 -1.33092,8.44859 -9.08594,17.51953c-7.75502,9.07094 -8.34427,5.52549 0.91406,12.03125c9.25833,6.50576 0.79297,0.62109 1.22656,0.87891c32.50391,19.04687 43.41407,60.83984 24.36719,93.34375c-12.25391,20.90625 -34.67578,33.74609 -58.91016,33.72656l0.00001,0z"/>
  <text font-weight="normal" xml:space="preserve" text-anchor="start" font-family="'Trebuchet MS', Gadget, sans-serif" font-size="196" id="svg_8" y="444.339606" x="-13.001831" fill-opacity="null" stroke-opacity="null" stroke-width="0" stroke="null" fill="#000000">HOAXWAGEN</text>
 </g>
</svg>